# xmcd CD database file
#
# Track frame offsets:
#	150
#	15657
#	36305
#	56730
#	75560
#	92167
#	121205
#	136747
#	151322
#	170422
#
# Disc length: 2453 seconds
#
# Revision: 0
# Processed by: cddbd v1.5.1PL0 Copyright (c) Steve Scherf et al.
# Submitted via: CDex 1.51
#
DISCID=7609930a
DTITLE=Asmund Bjørken - Jazz Accordion My Way
DYEAR=1900
DGENRE=Jazz
TTITLE0=Tangerine
TTITLE1=Days of Wine and Roses
TTITLE2=Summertime
TTITLE3=Sweet Georgie Fame
TTITLE4=I'm Getting Sentimental OverYou
TTITLE5=It Might As Well Be Spring
TTITLE6=Autumn Leaves
TTITLE7=Barney's Blues
TTITLE8=Trubbel
TTITLE9=St. Thomas
EXTD=
EXTT0=
EXTT1=
EXTT2=
EXTT3=
EXTT4=
EXTT5=
EXTT6=
EXTT7=
EXTT8=
EXTT9=
PLAYORDER=
